<?xml version="1.0" standalone="no"?><!-- Generator: Gravit.io --><svg xmlns="http://www.w3.org/2000/svg" xmlns:xlink="http://www.w3.org/1999/xlink" style="isolation:isolate" viewBox="-93 60 512.004 511.986" width="512.004" height="511.986"><defs><clipPath id="_clipPath_pgE1ZzW3sC2SMOCu3wiZFT0XmWFEsTUX"><rect x="-93" y="60" width="512.004" height="511.986"/></clipPath></defs><g clip-path="url(#_clipPath_pgE1ZzW3sC2SMOCu3wiZFT0XmWFEsTUX)"><g><g><path d=" M 70.119 86.184 C 60.269 86.184 52.287 94.167 52.287 104.015 L 52.287 180.044 L -62.559 65.221 C -66.042 61.74 -70.605 60 -75.167 60 C -79.732 60 -84.297 61.74 -87.777 65.223 C -94.741 72.187 -94.741 83.478 -87.775 90.439 L 27.076 205.264 L -48.969 205.264 C -58.817 205.264 -66.801 213.248 -66.801 223.096 C -66.801 232.944 -58.819 240.927 -48.969 240.927 L 70.119 240.927 C 79.969 240.927 87.95 232.944 87.95 223.096 L 87.95 104.013 C 87.95 94.167 79.969 86.184 70.119 86.184 Z " fill="rgb(136,136,136)"/><path d=" M 252.348 542.243 C 262.198 542.243 270.179 534.26 270.179 524.412 L 270.179 448.381 L 388.561 566.763 C 395.527 573.727 406.816 573.727 413.78 566.763 C 420.743 559.799 420.743 548.508 413.78 541.547 L 295.4 423.168 L 371.426 423.168 C 381.276 423.168 389.258 415.184 389.258 405.336 C 389.258 395.488 381.276 387.505 371.426 387.505 L 252.346 387.505 C 242.496 387.505 234.514 395.488 234.514 405.336 L 234.514 524.412 C 234.517 534.26 242.5 542.243 252.348 542.243 Z " fill="rgb(136,136,136)"/><path d=" M -87.771 541.543 L 30.608 423.173 L -45.42 423.173 C -55.268 423.173 -63.252 415.192 -63.252 405.342 C -63.252 395.492 -55.268 387.511 -45.42 387.511 L 73.66 387.511 C 83.508 387.511 91.492 395.492 91.492 405.342 L 91.492 524.418 C 91.492 534.266 83.508 542.249 73.66 542.249 C 63.813 542.249 55.829 534.268 55.829 524.418 L 55.829 448.39 L -62.555 566.762 C -69.519 573.725 -80.81 573.725 -87.774 566.759 C -94.735 559.8 -94.735 548.509 -87.771 541.543 Z " fill="rgb(136,136,136)"/><path d=" M 238.065 223.104 L 238.065 104.023 C 238.065 94.173 246.049 86.192 255.896 86.192 C 265.744 86.192 273.728 94.173 273.728 104.023 L 273.728 180.054 L 388.565 65.224 C 395.528 58.26 406.819 58.26 413.783 65.227 C 417.264 68.707 419.004 73.272 419.004 77.835 C 419.004 82.397 417.261 86.962 413.781 90.445 L 298.944 205.275 L 374.977 205.275 C 384.825 205.275 392.808 213.256 392.808 223.106 C 392.808 232.956 384.825 240.938 374.977 240.938 L 255.896 240.938 C 246.046 240.935 238.065 232.951 238.065 223.104 Z " fill="rgb(136,136,136)"/></g></g></g></svg>